<svg xmlns="http://www.w3.org/2000/svg" width="48" height="48" fill="none" viewBox="0 0 48 48"><path fill="#C21A0F" d="M0 0h48v48H0z"/><path fill="#fff" d="M12.454 26.972h2.66v6.8c-.004.646-.167 1.214-.49 1.705-.32.488-.764.869-1.33 1.143-.563.271-1.212.407-1.947.407-.637 0-1.22-.11-1.747-.33a2.774 2.774 0 0 1-1.262-1.046c-.314-.478-.47-1.097-.466-1.86h2.699c.01.25.052.46.126.63.078.171.184.3.32.388a.96.96 0 0 0 .505.126.92.92 0 0 0 .505-.131.806.806 0 0 0 .315-.388c.072-.174.109-.389.112-.644v-6.8Zm3.939 9.919v-9.919h7.164v2.17H19.09v1.705h4.097v2.17H19.09v1.704h4.446v2.17h-7.144Zm8.502 0v-9.919h2.699v7.75h4.018v2.17h-6.717Zm9.973-3.293v-.247c0-.566.045-1.017.134-1.354.09-.336.222-.605.397-.808a2.93 2.93 0 0 1 .645-.555c.22-.144.416-.283.588-.417.175-.134.313-.276.412-.427a.891.891 0 0 0 .155-.515.828.828 0 0 0-.46-.756 1.016 1.016 0 0 0-.468-.108 1.037 1.037 0 0 0-.892.484.982.982 0 0 0-.14.524H32.6c.007-.755.179-1.367.516-1.837.337-.473.783-.82 1.34-1.04a4.896 4.896 0 0 1 1.836-.334c.736 0 1.393.108 1.97.324.578.213 1.033.535 1.367.968.333.428.5.965.5 1.61 0 .416-.072.78-.217 1.096a2.606 2.606 0 0 1-.593.83c-.25.236-.544.452-.881.647a3.611 3.611 0 0 0-.624.448 1.5 1.5 0 0 0-.382.52 1.708 1.708 0 0 0-.129.7v.247h-2.434Zm1.258 3.458a1.42 1.42 0 0 1-1.026-.417 1.375 1.375 0 0 1-.418-1.024 1.34 1.34 0 0 1 .418-1.003 1.419 1.419 0 0 1 1.026-.417 1.4 1.4 0 0 1 1 .417c.293.277.44.612.444 1.003a1.383 1.383 0 0 1-.211.73c-.134.217-.31.39-.526.52a1.374 1.374 0 0 1-.707.191Z"/><path fill="#fff" fill-rule="evenodd" d="M15.648 16.923c-.008-.822.306-1.55 1.042-1.789l.018-.03a.408.408 0 0 1 .085-.113.439.439 0 0 1 .149-.07l.04-.016c3.572-1.308 5.182-3.271 6.108-4.604 0 1.309.33 3.015.909 4.667.595 1.691 1.455 3.342 2.504 4.476-1.093-.31-2.465-.705-4.695-.402a2.131 2.131 0 0 0-.159.713.547.547 0 0 0 .142.423l.034.031c.141.129.21.192.241.306.021.151.015.305-.018.454l-.013.094c-.052.413.149.498.348.582.2.085.355.153.435.38a.095.095 0 0 1 0 .056c-.082.423-.353.654-.626.886-.066.058-.134.116-.192.17h-.009c-.554.443-.928.325-1.213-.03-.223-.282-.378-.705-.523-1.1l-.062-.173a17.268 17.268 0 0 1-.565-2.126l-.048-.212a20.657 20.657 0 0 0-.893.268l-.055.02a.171.171 0 0 1-.188 0c-.892.296-1.637-.127-2.134-.832a3.516 3.516 0 0 1-.482-.972 3.615 3.615 0 0 1-.18-1.057Zm12.414-7.25a.425.425 0 0 1-.598-.084l-.01-.013a.429.429 0 0 1 .089-.59c.687-.506 1.371-1.017 2.058-1.511a.438.438 0 0 1 .314-.08.433.433 0 0 1 .283.171v.007a.421.421 0 0 1 .073.315.42.42 0 0 1-.17.282l-2.04 1.503Zm2.232 8.132a.426.426 0 0 1-.418-.433v-.01a.423.423 0 0 1 .434-.422c.759 0 1.53.028 2.29.042a.435.435 0 0 1 .424.437.435.435 0 0 1-.437.424l-2.289-.044-.004.006Zm.066-2.214a.425.425 0 0 1-.459-.392v-.01a.432.432 0 0 1 .392-.455c.707-.056 1.426-.117 2.134-.162a.434.434 0 0 1 .458.396.421.421 0 0 1-.103.312.436.436 0 0 1-.294.149c-.686.068-1.439.124-2.128.16v.002Zm-.305-2.056a.435.435 0 0 1-.534-.297.423.423 0 0 1 .038-.325.438.438 0 0 1 .259-.205c.736-.194 1.47-.43 2.206-.628a.427.427 0 0 1 .326.038.434.434 0 0 1 .205.254.432.432 0 0 1-.297.533l-2.204.627.001.003Zm-.89-2.018a.431.431 0 0 1-.386-.771l2.12-1.056a.425.425 0 0 1 .578.193.422.422 0 0 1 .023.329.433.433 0 0 1-.216.248l-2.12 1.057Zm-5.211-2.43c.018-.021.038-.04.056-.06a.63.63 0 0 1 .21-.156.507.507 0 0 1 .282-.01c.318.05.659.281 1.005.635.848.872 1.742 2.537 2.378 4.285.636 1.75 1.018 3.574.827 4.76-.072.44-.222.797-.468 1.033l-.012.01a.8.8 0 0 1-.35.14.383.383 0 0 0-.035-.028c-.847-.603-1.596-1.603-2.227-2.78.162.03.368-.089.566-.293.99-1.04.503-2.858-.731-3.28-.503-.169-1.004-.169-1.202-.072l-.02.012c-.453-1.74-.582-3.35-.28-4.196Z" clip-rule="evenodd"/></svg>